**ABCDEFGHIJKLMNOPQRSTUVWXYZabcdefghijklmnopqrstuvwxyz**************************
**PARASOLID !"#$%&'()*+,-./:;<=>?@[\]^_`{|}~0123456789**************************
**PART1;
MC=AMD64;
MC_MODEL=AMD64 Family 25 Model 33 Stepping 2, AuthenticAMD;
MC_ID=unknown;
OS=Windows_NT;
OS_RELEASE=unknown;
FRU=Parasolid Version 34.1, build 254,  2-10-2023;
APPL=SOLIDWORKS 2023-2023138;
SITE=;
USER=unknown;
FORMAT=text;
GUISE=transmit;
KEY=boxTruck;
FILE=boxTruck.x_t;
DATE=Fri Nov  8 09:34:24 2024;
**PART2;
SCH=SCH_3401254_34101;
USFLD_SIZE=0;
**PART3;
**END_OF_HEADER*****************************************************************
T51 : TRANSMIT FILE created by modeller version 340125423 SCH_3401254_34101_1300
6231 0 12 36 CCCI7 lattice222 0 CCCI4 mesh1006 0 I8 polyline1008 0 CCCCCCCDI5 ow
ner1040 0 CCCI16 boundary_lattice222 0 CCCI13 boundary_mesh1006 0 I17 boundary_p
olyline1008 0 CCCA16 index_map_offset0 0 1 dA9 index_map82 0 A17 node_id_index_m
ap82 0 A20 schema_embedding_map82 0 A5 child12 0 A14 lowest_node_id0 0 1 dA16 me
sh_offset_data206 0 Z1 811 2 3 0 0 0 0 0 0 0 1e3 1e-8 0 4 0 1 0 1 1 5 0 6 7 8 0
 0 9 10 11 0 0 0 0 0 0 0 81 255 2 2 771 12 1 13 0 0 0 0 14 70 11 CI9 list_type0
 0 1 uI10 notransmit0 0 1 lCCCDCCDI12 finger_index0 0 1 dI12 finger_block1012 0
 CZ3 0 4 T1 0 0 11 20 1 15 15 13 255 5 99 0 1 0 16 0 0 17 0 50 255 6 94 0 16 18
 0 0 +0 2.857 -1.2192 0 0 -1 -1 0 0 30 255 7 98 0 19 20 0 0 +3.6576 2.857 -1.219
2 0 -1 0 29 255 8 457 0 11 21 0 3.290001463022115 0 -1.2192 19 9 CCCCCCI5 frame2
30 0 CA5 owner12 0 Z9 33 0 1 17 0 22 0 V0 16 255 10 79 0 ?23 0 24 25 0 0 1 18 25
5 11 455 0 26 0 27 8 ?1 17 255 26 0 28 29 29 11 30 31 0 32 -18 27 403 0 33 11 34
 21 ?1 17 33 0 35 36 36 27 37 38 0 39 -18 34 326 0 40 27 41 42 ?1 29 21 405 0 27
 42 8 -.4572 0 -1.2192 29 42 328 0 34 43 21 2.375601463022115 0 1.2192 29 43 282
 0 41 44 42 .4572 0 1.2192 18 41 280 0 45 34 46 43 ?1 29 44 146 0 46 47 43 0 1.9
68 1.2192 18 46 144 0 48 41 49 44 ?1 29 47 77 0 50 51 44 3.6576 0 1.2192 18 50 6
8 0 52 53 54 47 ?1 29 51 78 0 54 55 47 3.6576 0 -1.2192 18 54 69 0 56 50 57 51 ?
1 29 55 32 0 49 58 51 0 2.857 -1.2192 18 49 30 0 59 46 60 55 ?1 29 58 29 0 60 61
 55 0 2.857 1.2192 18 60 27 0 62 49 63 58 ?1 29 61 26 0 63 64 58 3.6576 2.857 1.
2192 18 63 24 0 65 60 53 61 ?1 29 64 23 0 53 66 61 3.6576 2.857 -1.2192 18 53 21
 0 67 63 50 64 ?1 29 66 235 0 68 69 64 -1.408446340604894 0 1.2192 18 68 186 0 7
0 71 72 66 ?1 29 69 236 0 72 73 66 -1.408446340604894 0 -1.2192 18 72 184 0 74 6
8 75 69 ?1 29 73 239 0 57 76 69 -1.408446340604894 1.968 1.2192 18 57 189 0 77 5
4 78 73 ?1 29 76 240 0 78 79 73 -1.408446340604894 1.968 -1.2192 18 78 188 0 80
 57 71 76 ?1 29 79 241 0 71 81 76 0 1.968 -1.2192 18 71 185 0 23 78 68 79 ?1 29
 81 323 0 75 82 79 -.4572 0 1.2192 18 75 301 0 83 72 84 81 ?1 29 82 375 0 84 85
 81 3.290001463022115 0 1.2192 18 84 350 0 86 75 87 82 ?1 29 85 450 0 87 88 82 .
4572 0 -1.2192 18 87 426 0 37 84 89 85 ?1 29 88 500 0 89 0 85 2.375601463022115
 0 -1.2192 18 89 476 0 90 87 0 88 ?1 17 90 0 91 32 32 89 92 93 0 29 -15 255 91 4
80 0 32 94 0 17 32 0 91 90 90 11 29 95 0 96 +17 92 0 97 56 98 11 90 93 0 0 +16 9
3 453 0 ?92 99 100 101 99 100 1 17 29 0 28 26 26 89 32 95 0 30 -15 28 485 0 26 1
02 0 16 95 466 0 ?32 31 0 103 31 31 1 17 30 0 104 105 96 89 26 31 0 98 +15 104 4
59 0 30 16 0 17 105 0 104 106 30 87 98 99 0 107 -17 96 0 104 30 108 11 56 100 0
 92 -16 31 473 0 ?30 109 95 103 95 95 1 17 98 0 97 92 107 89 105 99 0 0 +15 97 4
9 0 110 111 0 17 107 0 97 98 110 87 39 112 0 0 +16 99 407 0 ?98 112 93 101 112 9
3 1 16 112 404 0 ?107 113 99 101 113 99 1 30 101 74 0 113 114 115 0 +0 0 -1.2192
 1 0 0 16 113 62 0 ?110 116 112 101 100 112 1 30 114 19 0 117 118 101 0 +0 2.857
 1.2192 0 0 -1 30 115 73 0 116 101 119 0 +3.6576 0 1.2192 0 0 -1 16 116 58 0 ?12
0 121 113 115 0 0 1 30 119 72 0 122 115 25 0 +0 0 1.2192 1 0 0 16 122 54 0 ?83 1
23 124 119 121 124 1 30 25 95 0 10 119 125 0 +0 2.857 -1.2192 0 -1 0 30 125 96 0
 24 25 20 0 +0 2.857 1.2192 0 -1 0 16 24 80 0 ?126 10 127 125 0 0 1 30 20 97 0 1
27 125 7 0 +3.6576 2.857 1.2192 0 -1 0 16 127 81 0 ?128 24 19 20 0 0 1 17 128 0
 129 120 130 50 131 127 0 132 +16 19 82 0 ?108 127 117 7 0 0 1 17 108 0 104 96 1
33 54 134 19 0 120 +16 117 17 0 ?135 19 136 114 0 0 1 17 135 0 137 23 62 49 138
 117 0 0 +16 136 13 0 ?65 117 139 118 0 0 1 17 65 0 140 67 138 63 141 136 0 131
 +16 139 9 0 ?67 136 123 142 0 0 1 30 118 15 0 136 142 114 0 +0 2.857 1.2192 1 0
 0 30 142 11 0 139 143 118 0 +3.6576 2.857 1.2192 0 0 -1 30 143 7 0 123 144 142
 0 +0 2.857 -1.2192 1 0 0 16 123 5 0 ?133 139 122 143 0 0 1 30 144 223 0 145 146
 143 0 +-1.408446340604894 1.968 -1.2192 0 -1 0 16 145 167 0 ?147 100 148 144 0
 0 1 30 146 224 0 148 149 144 0 +-1.408446340604894 1.968 1.2192 0 -1 0 16 148 1
71 0 ?150 145 151 146 0 0 1 30 149 227 0 152 153 146 0 +-1.408446340604894 0 -1.
2192 910615997888088e-31 0 1 16 152 164 0 ?154 155 156 149 0 0 1 30 153 230 0 15
1 157 149 0 +2986178755040905e-31 1.968 1.2192 1 0 -157652157930041e-30 16 151 1
81 0 ?158 148 159 153 0 0 1 30 157 231 0 159 160 153 0 +-1.408446340604894 1.968
 -1.2192 910615997888088e-31 0 1 16 159 178 0 ?77 151 161 157 0 0 1 30 160 232 0
 161 162 157 0 +0 1.968 -1.2192 -1 0 0 16 161 175 0 ?80 159 155 160 0 0 1 30 162
 233 0 155 163 160 0 +0 1.968 -1.2192 -1224646799147352e-31 0 -1 16 155 172 0 ?1
64 161 152 162 0 0 1 31 255 163 321 0 165 166 162 0 +0 0 1.2192 0 0 1 1 0 0 .457
2 16 165 291 0 ?167 156 168 163 168 168 1 31 166 322 0 156 169 163 0 +0 0 1.3716
 0 0 1 1 0 0 .4572 16 156 297 0 ?170 152 165 166 0 0 1 31 169 372 0 171 172 166
 0 +2.832801463022115 0 1.3716 0 0 1 1 0 0 .4572 16 171 347 0 ?173 174 175 169 0
 0 1 31 172 373 0 176 177 169 0 +2.832801463022115 0 1.2192 0 0 1 1 0 0 .4572 16
 176 341 0 ?178 168 174 172 174 174 1 31 177 447 0 179 180 172 0 +0 0 -1.2192 0
 0 1 1 0 0 .4572 16 179 416 0 ?106 175 38 177 38 38 1 31 180 448 0 175 103 177 0
 +0 0 -1.3716 0 0 1 1 0 0 .4572 16 175 420 0 ?181 171 179 180 0 0 1 31 103 498 0
 31 182 180 0 +2.832801463022115 0 -1.2192 0 0 1 1 0 0 .4572 31 182 499 0 109 0
 103 0 +2.832801463022115 0 -1.3716 0 0 1 1 0 0 .4572 16 109 470 0 ?183 38 31 18
2 0 0 1 17 183 0 184 183 183 0 185 109 0 0 +16 38 423 0 ?37 179 109 177 179 179
 1 17 37 0 186 39 39 87 33 38 0 36 +15 186 441 0 39 187 0 17 39 0 186 37 37 27 1
07 112 0 106 -17 36 0 35 33 33 87 106 179 0 105 -15 35 435 0 36 188 0 17 106 0 1
04 74 105 27 36 179 0 110 +17 74 0 104 189 106 72 110 113 0 147 -17 110 0 97 107
 190 27 74 113 0 0 +17 190 0 97 110 70 72 154 152 0 0 -17 70 0 97 190 191 68 83
 122 0 154 -17 154 0 192 193 147 68 190 152 0 150 +15 192 203 0 154 194 0 17 193
 0 192 195 154 57 150 148 0 196 -17 147 0 192 154 195 72 189 145 0 190 +17 150 0
 197 83 196 68 193 148 0 0 +15 197 333 0 198 199 0 17 83 0 197 45 150 75 70 122
 0 191 +17 196 0 197 150 126 57 158 151 0 0 -17 126 0 197 196 141 46 62 24 0 158
 +17 158 0 200 164 77 46 196 151 0 0 +15 200 210 0 164 201 0 17 164 0 200 80 158
 71 48 155 0 0 +17 77 0 200 158 80 57 195 159 0 193 +17 80 0 200 77 164 78 202 1
61 0 189 +17 195 0 192 147 193 78 77 159 0 0 -17 202 0 104 59 189 71 80 161 0 16
4 -17 189 0 104 202 74 78 147 145 0 195 -17 59 0 104 133 202 49 23 10 0 203 -17
 133 0 104 108 59 53 203 123 0 0 +17 23 0 137 48 135 71 59 10 0 202 +17 203 0 14
0 138 67 49 133 123 0 135 -15 140 4 0 203 204 0 17 138 0 140 65 203 60 135 117 0
 0 -17 67 0 140 203 65 53 130 139 0 134 +17 130 0 129 128 134 63 67 139 0 0 -17
 134 0 129 130 120 53 108 19 0 133 -15 129 87 0 120 205 0 17 120 0 129 134 128 5
4 132 116 0 0 +17 132 0 97 86 56 50 120 116 0 0 -17 86 0 97 40 132 84 52 121 0 1
98 -17 56 0 97 132 92 54 96 100 0 108 +16 100 456 0 ?56 93 145 101 93 113 1 17 4
0 0 97 206 86 34 207 208 0 209 -17 52 0 197 131 198 50 86 121 0 128 +16 121 330
 0 ?52 208 116 119 208 122 1 17 198 0 197 52 209 84 178 176 0 207 -17 209 0 197
 198 45 34 206 210 0 211 +17 178 0 212 213 213 34 198 176 0 0 +17 207 0 214 211
 211 84 40 208 0 213 +15 214 354 0 211 215 0 17 211 0 214 207 207 34 213 174 0 1
78 -16 208 327 0 ?207 210 121 119 210 121 1 17 213 0 212 178 178 84 211 174 0 0
 +15 212 359 0 178 216 0 16 174 344 0 ?213 176 171 172 176 176 1 14 255 216 355
 217 ?218 215 219 5 220 -0 0 218 215 22 81 1 217 773 221 216 222 0 0 223 224 14
 218 360 223 ?188 216 225 5 226 +0 0 188 216 22 14 215 352 227 ?216 228 214 5 22
9 -0 0 216 228 22 15 219 358 0 230 216 212 51 255 220 370 0 216 231 229 0 -2.832
801463022115 0 1.3716 0 0 -1 .4572 -1 0 0 13 22 34 0 0 0 0 0 0 9 16 14 16 90 232
 ?233 0 104 5 6 +0 0 233 0 22 81 1 232 779 221 16 234 0 227 235 236 14 233 84 23
5 ?199 16 137 5 237 +0 0 199 16 22 81 1 235 781 221 233 238 0 232 239 240 14 199
 86 239 ?205 233 197 5 241 -0 0 205 233 22 15 137 151 0 48 233 0 50 237 91 0 233
 242 241 0 +0 2.857 1.2192 -1 0 0 0 0 1 50 242 70 0 111 243 237 0 +0 0 0 0 1 0 0
 0 1 50 241 92 0 199 237 18 0 +0 2.857 1.2192 0 0 -1 -1 0 0 50 18 93 0 205 241 6
 0 +3.6576 2.857 1.2192 -1 0 0 0 0 1 14 205 88 244 ?204 199 129 5 18 -0 0 204 19
9 22 81 1 244 785 221 205 245 0 239 246 247 14 204 1 246 ?111 205 140 5 243 +0 0
 111 205 22 81 1 246 787 221 204 248 0 244 249 250 14 111 48 249 ?194 204 97 5 2
42 -0 0 194 204 22 50 243 3 0 204 251 242 0 +0 2.857 0 0 1 0 0 0 1 50 251 218 0
 194 252 243 0 +-1.408446340604894 1.968 -1.2192 1 0 -910615997888088e-31 -91061
5997888088e-31 0 -1 14 194 200 253 ?201 111 192 5 251 -0 0 201 111 22 50 252 221
 0 201 254 251 0 +0 1.968 0 0 -1 0 0 0 -1 14 201 208 255 ?256 194 200 5 252 -0 0
 256 194 22 51 254 318 0 257 258 252 0 -0 0 1.3716 0 0 -1 .4572 -1 0 0 14 257 30
5 259 ?228 256 260 5 254 -0 0 228 256 22 50 258 319 0 256 261 254 0 +0 0 1.2192
 0 0 1 1 0 0 14 256 302 262 ?257 201 263 5 258 -0 0 257 201 22 50 261 320 0 228
 226 258 0 +0 0 1.3716 0 0 1 1 0 0 14 228 310 264 ?215 257 265 5 261 +0 0 215 25
7 22 50 226 368 0 218 229 261 0 +2.832801463022115 0 1.3716 0 0 1 1 0 0 50 229 3
69 0 215 220 226 0 +2.832801463022115 0 1.2192 0 0 1 1 0 0 81 1 264 799 221 228
 266 0 262 267 268 15 265 312 0 170 228 0 17 170 0 265 170 170 0 269 156 0 0 +17
 269 0 260 269 269 0 170 156 0 0 -15 260 308 0 269 257 270 15 270 309 0 167 257
 0 17 167 0 270 271 271 75 45 165 0 0 +17 271 0 270 167 167 41 272 168 0 0 +17 4
5 0 197 209 83 41 167 165 0 206 -17 206 0 97 191 40 41 209 210 0 273 -17 191 0 9
7 70 206 75 273 124 0 272 -16 210 281 0 ?209 124 208 119 124 208 1 17 273 0 263
 272 272 41 191 124 0 271 +15 263 304 0 272 256 0 17 272 0 263 273 273 75 271 16
8 0 167 -16 124 278 0 ?273 122 210 119 122 210 1 16 168 294 0 ?271 165 176 163 1
65 165 1 80 7 CCCCCDI12 legal_owners0 16 1 lCZ1 221 274 275 9000 1 1 1 1 1 1 1 1
 0 FFFFTFTFFFFFFFFF1 81 3 266 798 276 228 277 264 278 279 280 0 0 81 1 262 797 2
21 256 278 0 259 264 281 81 1 267 801 221 188 279 0 264 282 283 82 255 1 268 -18
0223891 14 188 431 267 ?284 218 285 5 231 +0 0 284 218 22 81 3 279 800 276 188 2
86 267 266 287 288 0 0 81 1 282 803 221 284 287 0 267 289 290 82 1 283 300482671
 14 284 436 282 ?187 188 291 5 292 +0 0 187 188 22 81 3 287 802 276 284 293 282
 279 294 295 0 0 81 1 289 805 221 187 294 0 282 296 297 82 1 290 298516591 14 18
7 439 289 ?94 284 186 5 298 -0 0 94 284 22 81 3 294 804 276 187 299 289 287 300
 301 0 0 81 1 296 807 221 94 300 0 289 302 303 82 1 297 300220527 14 94 478 296
 ?102 187 91 5 304 -0 0 102 187 22 81 3 300 806 276 94 305 296 294 306 307 0 0 8
1 1 302 809 221 102 306 0 296 308 309 82 1 303 310837359 14 102 481 302 ?310 94
 184 5 311 +0 0 310 94 22 81 3 306 808 276 102 312 302 300 313 314 0 0 81 1 308
 811 221 310 313 0 302 0 315 82 1 309 304480367 14 310 486 308 ?0 102 316 5 317
 +0 0 0 102 22 81 3 313 810 276 310 318 308 306 0 319 0 0 82 1 315 302514287 80
 3 276 320 321 9000 0 0 0 0 3 5 0 0 0 FFFFTFFFFFFFFFFF1 1 1 81 1 318 706 322 310
 0 313 312 0 323 82 6 319 0 1314608974 31142404 0 0 0 80 1 322 0 324 8001 0 0 0
 0 3 5 0 0 0 FFFFTFTFFFFFFFFF2 81 1 312 705 322 102 0 306 305 318 325 83 255 3 3
23 .792156862745098 .819607843137255 .933333333333333 81 1 305 704 322 94 0 300
 299 312 326 83 3 325 .792156862745098 .819607843137255 .933333333333333 81 1 29
9 703 322 187 0 294 293 305 327 83 3 326 .792156862745098 .819607843137255 .9333
33333333333 81 1 293 702 322 284 0 287 286 299 328 83 3 327 .792156862745098 .81
9607843137255 .933333333333333 81 1 286 701 322 188 0 279 329 293 330 83 3 328 .
792156862745098 .819607843137255 .933333333333333 81 1 329 700 322 218 0 331 332
 286 333 83 3 330 .792156862745098 .819607843137255 .933333333333333 81 3 331 77
4 276 218 329 223 222 334 335 0 0 81 1 332 699 322 216 0 222 336 329 337 83 3 33
3 .792156862745098 .819607843137255 .933333333333333 81 3 222 772 276 216 332 21
7 0 331 338 0 0 81 1 336 698 322 215 0 334 277 332 339 83 3 337 .792156862745098
 .819607843137255 .933333333333333 81 3 334 776 276 215 336 227 331 234 340 0 0
 81 1 277 697 322 228 0 266 341 336 342 83 3 339 .792156862745098 .8196078431372
55 .933333333333333 81 1 341 696 322 257 0 343 344 277 345 83 3 342 .79215686274
5098 .819607843137255 .933333333333333 81 3 343 794 276 257 341 259 346 278 347
 0 0 81 1 344 695 322 256 0 278 348 341 349 83 3 345 .792156862745098 .819607843
137255 .933333333333333 81 3 278 796 276 256 344 262 343 266 350 0 0 81 1 348 69
4 322 201 0 346 351 344 352 83 3 349 .792156862745098 .819607843137255 .93333333
3333333 81 3 346 792 276 201 348 255 353 343 354 0 0 81 1 351 693 322 194 0 353
 355 348 356 83 3 352 .792156862745098 .819607843137255 .933333333333333 81 3 35
3 790 276 194 351 253 357 346 358 0 0 81 1 355 692 322 111 0 357 359 351 360 83
 3 356 .792156862745098 .819607843137255 .933333333333333 81 3 357 788 276 111 3
55 249 248 353 361 0 0 81 1 359 691 322 204 0 248 362 355 363 83 3 360 .79215686
2745098 .819607843137255 .933333333333333 81 3 248 786 276 204 359 246 245 357 3
64 0 0 81 1 362 690 322 205 0 245 365 359 366 83 3 363 .792156862745098 .8196078
43137255 .933333333333333 81 3 245 784 276 205 362 244 367 248 368 0 0 81 1 365
 689 322 199 0 367 369 362 370 83 3 366 .792156862745098 .819607843137255 .93333
3333333333 81 3 367 782 276 199 365 239 238 245 371 0 0 81 1 369 688 322 233 0 2
38 372 365 373 83 3 370 .792156862745098 .819607843137255 .933333333333333 81 3
 238 780 276 233 369 235 234 367 374 0 0 81 1 372 687 322 16 0 234 0 369 375 83
 3 373 .792156862745098 .819607843137255 .933333333333333 81 3 234 778 276 16 37
2 232 334 238 376 0 0 83 3 375 .792156862745098 .819607843137255 .93333333333333
3 82 6 376 0 1314608974 31142404 0 0 0 82 6 374 0 684391078 31142404 0 0 0 81 1
 239 783 221 199 367 0 235 244 377 82 6 371 0 1162481964 31142404 0 0 0 82 1 377
 -720568211 82 6 368 0 430005476 31142404 0 0 0 82 6 364 0 430005476 31142404 0
 0 0 81 1 249 789 221 111 357 0 246 253 378 82 6 361 0 684391078 31142404 0 0 0
 81 1 253 791 221 194 353 0 249 255 379 82 1 378 -721616785 81 1 255 793 221 201
 346 0 253 259 380 82 1 379 1560019050 81 1 259 795 221 257 343 0 255 262 381 82
 1 380 1553203306 82 1 381 -178257811 82 6 358 0 684391078 31142404 0 0 0 82 6 3
54 0 684391078 31142404 0 0 0 82 6 350 0 1162481964 31142404 0 0 0 82 6 347 0 11
62481964 31142404 0 0 0 81 1 227 777 221 215 334 0 223 232 382 82 6 340 0 116248
1964 31142404 0 0 0 81 1 223 775 221 218 331 0 217 227 383 82 1 382 -162529171 8
2 1 383 -176095123 82 6 338 0 1162481964 31142404 0 0 0 82 6 335 0 1162481964 31
142404 0 0 0 79 255 15 324 SDL/TYSA_COLOUR79 18 321 DOWNSTREAM_FACE_ID15 316 488
 0 185 310 0 50 317 496 0 310 0 304 0 +2.832801463022115 0 -1.3716 0 0 -1 1 0 0
 50 304 495 0 94 317 311 0 +2.832801463022115 0 -1.2192 0 0 -1 1 0 0 51 311 494
 0 102 304 292 0 +2.832801463022115 0 -1.3716 0 0 1 .4572 1 0 0 50 292 446 0 284
 311 298 0 +0 0 -1.3716 0 0 -1 1 0 0 50 298 445 0 187 292 231 0 +0 0 -1.2192 0 0
 -1 1 0 0 51 231 444 0 188 298 220 0 +0 0 -1.3716 0 0 1 .4572 1 0 0 17 185 0 316
 185 185 0 183 109 0 0 -82 6 314 0 1314608974 31142404 0 0 0 15 184 484 0 183 10
2 28 82 6 307 0 1314608974 31142404 0 0 0 82 6 301 0 1314608974 31142404 0 0 0 8
2 6 295 0 1314608974 31142404 0 0 0 15 291 438 0 384 284 0 17 384 0 291 384 384
 0 181 175 0 0 -17 181 0 285 181 181 0 384 175 0 0 +15 285 434 0 181 188 35 82 6
 288 0 1314608974 31142404 0 0 0 82 1 281 -164429715 82 6 280 0 1162481964 31142
404 0 0 0 79 14 275 SWEntUnchanged82 1 250 -727252889 82 1 247 -720240537 17 48
 0 137 62 23 46 164 155 0 126 -17 62 0 137 135 48 60 126 24 0 141 -17 141 0 197
 126 131 60 65 136 0 138 -17 131 0 197 141 52 63 128 127 0 130 -82 1 240 -720699
286 82 1 236 -719978385 17 230 0 219 230 230 0 173 171 0 0 -17 173 0 225 173 173
 0 230 171 0 0 +15 225 362 0 173 218 0 82 1 224 -174129043 19 17 100 0 1 0 9 5 0
 S0 74 4 CI16 index_map_offset0 0 1 dCCZ20 15 11 0 0 313 308 385 386 387 388 389
 390 13 318 2 0 0 0 0 0 0 0 0 0 81 2 385 503 391 1 0 386 0 0 0 392 81 2 386 504
 393 1 385 387 0 0 0 0 81 2 387 505 394 1 386 388 0 0 0 395 81 2 388 506 396 1 3
87 389 0 0 397 0 81 1 389 527 398 1 388 390 0 0 399 81 2 390 549 400 1 389 13 0
 0 401 0 81 2 13 630 402 1 390 2 0 0 0 403 80 2 402 404 405 9000 0 0 0 0 3 5 0 0
 0 FFTFFFFFFFFFFFFF9 1 82 1 403 1 79 24 405 BODY_IN_LIGHTWEIGHT_PERM80 2 400 406
 407 8004 0 0 0 0 3 5 0 0 0 FFTFFFFFFFFFFFFF2 3 83 1 401 1 79 16 407 SDL/TYSA_DE
NSITY80 1 398 408 409 9000 1 1 1 1 1 1 1 1 0 FFTFFFFFFFFFFFFF1 82 1 399 54437 79
 10 409 BODY_MATCH80 2 396 410 411 9000 0 0 0 0 3 5 0 0 0 FFTFTTTFFTFFFFFF3 3 84
 255 7 397 Mirror179 21 411 SWIMPLICITBODYNAME_ID80 2 394 412 413 9000 0 0 0 0 3
 5 0 0 0 FFTFFFFFFFFFFFFF9 1 82 1 395 54 79 30 413 LAST_BODY_MODIFYING_FEATURE_I
D80 2 393 414 415 9000 0 0 0 0 3 5 0 0 0 FFTFFFFFFFFFFFFF9 1 79 16 415 BODY_RECI
PE_200180 2 391 416 417 9000 0 0 0 0 3 5 0 0 0 FFTFFFFFFFFFFFFF9 1 82 1 392 109
 79 19 417 ENT_TIME_STAMP_200180 2 12 418 419 9000 0 0 0 0 3 5 0 0 0 FFTFFFFFFFF
FFFFF9 1 82 1 14 104 79 12 419 ATOM_ID_20011 0 
